<svg width="161" height="32" viewBox="0 0 161 32" fill="none" xmlns="http://www.w3.org/2000/svg">
<path fill-rule="evenodd" clip-rule="evenodd" d="M11.9924 18.3952C12.2327 18.525 12.5407 18.5122 12.7544 18.3198L12.7621 18.3268C13.4055 17.7508 14.5765 16.7283 15.2349 16.1732C15.4976 15.9577 15.4511 15.6068 15.2456 15.3118C15.1827 15.2246 15.1194 15.139 15.0566 15.054C14.5293 14.3412 14.0285 13.6643 14.0285 12.3067V7.25479C14.0285 7.0809 14.0295 6.90818 14.0305 6.73678C14.0416 4.79776 14.0518 3.02876 12.6106 1.67428C11.3734 0.48072 9.32197 0.0595703 7.75301 0.0595703C4.68421 0.0595703 1.25949 1.21157 0.541401 5.02472C0.464946 5.42969 0.758693 5.64265 1.02281 5.70224L4.1483 6.04247C4.44095 6.02775 4.65275 5.73865 4.70872 5.44661C4.97686 4.13313 6.071 3.49939 7.30086 3.49939C7.96408 3.49939 8.71875 3.74509 9.1109 4.34169C9.51617 4.93892 9.50976 5.73324 9.50401 6.44719C9.50334 6.53041 9.50268 6.61254 9.50268 6.69313V7.11428C9.21251 7.14699 8.90853 7.17799 8.59548 7.20992C6.89101 7.38376 4.91748 7.58503 3.43899 8.23759C1.41788 9.1152 0 10.905 0 13.5375C0 16.9067 2.11146 18.5912 4.82688 18.5912C7.11979 18.5912 8.37379 18.0472 10.1436 16.2343C10.2332 16.3646 10.3136 16.4848 10.3893 16.5979C10.8085 17.2241 11.0849 17.6369 11.9924 18.3952ZM9.50282 10.5793C9.50276 10.5245 9.5027 10.4692 9.5027 10.4136V9.7118C7.17029 9.7118 4.70619 10.2142 4.70619 12.9758C4.70619 14.3794 5.43049 15.3272 6.6673 15.3272C7.57232 15.3272 8.38698 14.766 8.89948 13.8534C9.50517 12.7796 9.50409 11.7699 9.50282 10.5793ZM55.0308 18.3198C54.8172 18.5122 54.5096 18.525 54.2689 18.3952C53.361 17.6364 53.0847 17.2234 52.6651 16.5964L52.6649 16.5961C52.5895 16.4835 52.5095 16.364 52.4204 16.2343C50.6499 18.0472 49.3959 18.5912 47.1034 18.5912C44.3883 18.5912 42.2761 16.9067 42.2761 13.5375C42.2761 10.905 43.694 9.1152 45.7155 8.23759C47.1937 7.58502 49.1675 7.38374 50.8723 7.2099C51.1853 7.17798 51.4893 7.14698 51.7795 7.11428V6.69313C51.7795 6.61304 51.7802 6.53144 51.7808 6.44875V6.44836C51.7865 5.73411 51.7929 4.93925 51.3874 4.34169C50.9949 3.74509 50.2409 3.49939 49.577 3.49939C48.3471 3.49939 47.2537 4.13313 46.9848 5.44661C46.9292 5.73865 46.7171 6.02775 46.4248 6.04247L43.2989 5.70224C43.0352 5.64265 42.7418 5.42969 42.8179 5.02472C43.5363 1.21157 46.9607 0.0595703 50.0298 0.0595703C51.5984 0.0595703 53.6499 0.48072 54.8867 1.67428C56.328 3.02854 56.3178 4.79718 56.3066 6.73582C56.3056 6.90754 56.3046 7.08058 56.3046 7.25479V12.3067C56.3046 13.6633 56.8053 14.3403 57.332 15.0525L57.3322 15.0527C57.3954 15.1382 57.4589 15.2241 57.522 15.3118C57.728 15.6068 57.7744 15.9577 57.5114 16.1732C56.8526 16.7283 55.6824 17.7508 55.0382 18.3268L55.0308 18.3198ZM51.7795 10.4136L51.7796 10.5775C51.7809 11.7689 51.7819 12.779 51.1759 13.8534C50.663 14.766 49.8487 15.3272 48.9434 15.3272C47.7066 15.3272 46.9826 14.3794 46.9826 12.9758C46.9826 10.2142 49.4464 9.7118 51.7795 9.7118V10.4136ZM139.785 17.7673C139.785 18.0932 140.052 18.3555 140.387 18.3658H141.797C142.12 18.3448 142.376 18.087 142.376 17.7681L142.377 8.17507C142.377 6.70417 142.527 5.26822 143.31 4.11254C143.919 3.20219 144.946 2.42169 145.961 2.36468C146.94 2.41654 147.874 3.06978 148.395 4.07723C148.846 4.953 148.906 6.10868 148.906 7.08927L148.913 17.7673C148.913 18.0932 149.181 18.3555 149.515 18.3658H150.925C151.22 18.3463 151.458 18.1307 151.499 17.8549V8.77019L151.498 8.60444C151.497 7.00329 151.497 5.7459 152.341 4.3575C153.009 3.24228 154.042 2.42095 155.168 2.36468C156.176 2.4158 157.113 3.10619 157.606 4.21736C158.039 5.19525 158.034 6.31514 158.028 7.39783C158.028 7.5173 158.027 7.63632 158.027 7.75465V17.849C158.068 18.1366 158.318 18.3562 158.623 18.3658H160.04C160.364 18.3448 160.619 18.087 160.619 17.7681L160.619 7.75465L160.619 7.57217V7.572C160.62 5.96523 160.622 4.09344 159.897 2.67658C159.114 1.1358 157.609 0.120262 156.044 0.120262L155.915 0.122101L155.799 0.120262C153.585 0.120262 151.906 1.70886 151.015 3.94628C150.444 1.68017 148.905 0.120262 146.802 0.120262L146.683 0.122101L146.559 0.120262C144.576 0.120262 143.008 1.62684 142.166 3.54978V1.12293C142.14 0.814331 141.872 0.574882 141.546 0.574882L140.363 0.57525C140.055 0.595112 139.808 0.829043 139.785 1.12256V17.7673ZM18.3374 18.3614H21.562C21.9059 18.3614 22.1846 18.0947 22.1843 17.7622L22.1854 8.94086L22.1851 8.73159C22.182 6.8277 22.1779 4.35309 24.4132 4.35309C26.469 4.35309 26.4343 6.55891 26.4062 8.35297V8.35303V8.35308V8.35314V8.35318V8.35324V8.35328V8.35334V8.35338C26.403 8.5557 26.3999 8.75278 26.3999 8.94086L26.4032 17.7637C26.4032 18.0826 26.6585 18.3404 26.9823 18.3614H30.2032C30.5467 18.3614 30.8255 18.0947 30.8255 17.7622V8.94086C30.8255 8.86971 30.8253 8.79598 30.8251 8.7201C30.8229 7.7876 30.82 6.53132 31.1262 5.7541C31.4572 4.91327 32.2704 4.38803 33.0529 4.38803C33.9861 4.38803 34.7086 4.70325 34.9493 5.82399C35.071 6.36158 35.055 7.60797 35.0444 8.43623L35.0444 8.43695C35.0418 8.63353 35.0396 8.80653 35.0396 8.94086L35.0403 17.7637C35.0403 18.0826 35.2957 18.3404 35.6194 18.3614H38.8408C39.1839 18.3614 39.4626 18.0947 39.4626 17.7622L39.4652 7.25994C39.4652 7.00225 39.4696 6.73946 39.474 6.47419C39.5002 4.90079 39.5279 3.2403 38.652 2.04173C37.7488 0.780859 36.2739 0.220675 34.9193 0.220675C33.0225 0.220675 31.2465 1.20127 30.4641 3.30261C29.5609 1.20127 28.2963 0.220675 26.2795 0.220675C24.2928 0.220675 22.8179 1.20127 22.035 3.30261H21.9747V1.12955C21.9549 0.826101 21.7025 0.58702 21.3883 0.570836L18.385 0.571572C18.0411 0.571572 17.7627 0.837871 17.7627 1.17074L17.7605 17.8133C17.785 18.109 18.0305 18.3411 18.3374 18.3614ZM60.2297 3.50821V1.13028C60.2312 0.768351 60.5026 0.527064 60.8293 0.527799L71.4297 0.526696C71.7685 0.526696 72.0407 0.774604 72.0414 1.12734L72.0407 3.16688C72.0381 3.50895 71.7517 3.95548 71.2425 4.66389L65.7516 12.5466C67.7899 12.4987 69.946 12.8051 71.7981 13.8519C72.2155 14.0877 72.3275 14.4375 72.3604 14.7803V17.3175C72.3604 17.6673 71.9799 18.0719 71.5801 17.8615C68.3171 16.1431 63.9873 15.9547 60.3797 17.8821C60.0109 18.0796 59.625 17.6809 59.625 17.3311V14.919C59.625 14.5331 59.6323 13.8729 60.0194 13.2844L66.3812 4.10775L60.8421 4.10702C60.5037 4.10702 60.2319 3.86426 60.2297 3.50821ZM60.103 21.62C62.0595 21.3847 66.3892 20.864 67.1626 21.8593C67.9368 22.8557 66.3034 26.9587 65.5721 28.7957L65.5706 28.7996C65.3493 29.355 65.8241 29.579 66.3238 29.1586C69.5718 26.4268 70.411 20.7025 69.7456 19.8757C69.0857 19.0569 63.4075 18.35 59.9422 20.7974C59.4092 21.1737 59.501 21.6927 60.0922 21.6213L60.103 21.62ZM42.2541 31.6322C49.8118 31.6322 58.5891 29.2428 64.6429 24.7507C65.6448 24.0073 64.7866 22.8921 63.7631 23.3291C56.9762 26.2234 49.6 27.6237 42.8899 27.6237C32.9428 27.6237 23.3121 24.8794 15.5243 20.3226C14.8432 19.9238 14.3376 20.6271 14.9042 21.1413C22.1232 27.6954 31.6613 31.6322 42.2541 31.6322ZM81.1966 3.61746C78.8181 3.61746 78.6677 6.87447 78.6677 8.90555L78.6677 8.97619C78.6674 11.0358 78.6667 15.2798 81.1666 15.2798C83.6655 15.2798 83.7855 11.7775 83.7855 9.64118C83.7855 8.24054 83.7255 6.55925 83.304 5.22849C82.9423 4.07281 82.2198 3.61746 81.1966 3.61746ZM81.1666 0.220675C85.9532 0.220675 88.5417 4.35309 88.5417 9.60624C88.5417 14.6839 85.6825 18.7119 81.1666 18.7119C76.4703 18.7119 73.9115 14.5791 73.9115 9.43116C73.9115 4.24789 76.5003 0.220675 81.1666 0.220675ZM91.5362 18.3614H94.7491C95.0926 18.3614 95.3714 18.0947 95.3772 17.7622V8.80072C95.3772 7.67999 95.4379 6.66445 95.8893 5.64891C96.25 4.84339 96.9725 4.31815 97.7553 4.31815C99.8101 4.31815 99.7905 6.58226 99.775 8.3628L99.775 8.36527C99.7737 8.51436 99.7724 8.66005 99.7724 8.80072V17.8369C99.8075 18.1215 100.048 18.3419 100.347 18.3614H103.58C103.898 18.3614 104.161 18.1322 104.198 17.8369V7.36477C104.198 5.7541 104.198 3.51263 103.355 2.18187C102.452 0.745917 101.036 0.220675 99.5917 0.220675C97.3639 0.220675 96.1001 1.3061 95.1969 3.58251H95.1361V1.03686C95.0769 0.778653 94.8446 0.585181 94.5633 0.570836L91.5717 0.571572C91.2468 0.571572 90.9794 0.810653 90.9524 1.11484L90.9575 17.7637C90.9575 18.0826 91.2132 18.3404 91.5362 18.3614ZM106.219 17.0409C106.219 16.2034 106.93 15.5244 107.807 15.5244C108.684 15.5244 109.394 16.2034 109.394 17.0409C109.394 17.878 108.684 18.5567 107.807 18.5567C106.93 18.5567 106.219 17.878 106.219 17.0409ZM131.006 16.4373C132.511 16.388 133.699 15.4505 134.402 13.8832C135.033 12.4826 135.154 10.8715 135.154 9.33074C135.154 7.64946 134.973 5.89865 134.191 4.4627C133.49 3.2066 132.281 2.41139 131.001 2.36357C129.575 2.41617 128.305 3.385 127.661 4.88274C127.09 6.17856 126.909 7.89479 126.909 9.33074C126.909 10.9414 127.12 12.7974 127.782 14.1984C128.425 15.5255 129.666 16.3899 131.006 16.4373ZM130.669 18.7163C126.093 18.7163 124.046 14.0233 124.046 9.33074C124.046 4.39245 126.455 0.120262 131.06 0.120262L131.179 0.121365L131.304 0.120262C135.789 0.120262 138.017 4.67272 138.017 9.36532C138.017 14.3386 135.548 18.7163 130.912 18.7163L130.794 18.7148L130.669 18.7163ZM119.95 12.5021C119.502 14.6479 118.424 16.3031 116.37 16.3678C113.279 16.2652 112.545 12.1313 112.545 9.29543C112.545 6.35769 113.425 2.53277 116.516 2.43346C118.456 2.49782 119.621 4.11879 119.963 6.15759C120.008 6.44449 120.204 6.70307 120.499 6.74537L121.923 6.76228C122.22 6.72771 122.473 6.49047 122.473 6.21644C121.984 2.5644 119.733 0.120262 116.579 0.120262L116.455 0.121365L116.335 0.120262C111.789 0.120262 109.802 4.8478 109.802 9.47051C109.802 14.1285 111.759 18.7163 116.305 18.7163L116.423 18.7148L116.549 18.7163C119.671 18.7163 121.863 16.2365 122.49 12.5867C122.514 12.2861 122.22 12.0397 121.9 12.0228L120.541 12.0287C120.241 12.0287 120.037 12.2347 119.95 12.5021Z" fill="#969696"/>
</svg>
